<?xml version="1.0" encoding="UTF-8"?>
<svg id="Layer_2" data-name="Layer 2" xmlns="http://www.w3.org/2000/svg" viewBox="0 0 595.35 2456.93">
  <defs>
    <style>
      .cls-1 {
        fill: #C9D3E3;
        stroke-width: 0px;
      }
    </style>
  </defs>
  <g id="github">
    <path class="cls-1" d="m.04,0s78,39.2,135.84,45.3c52.32,5.52,184.45-13.75,257.26,10.52s114.07,49.35,127.01,81.71-12.13,101.93-88.99,125.39-204.67-49.35-263.73-46.11S.04,287.19.04,287.19v-64.72s89.73-62.29,166.58-64.72,165.84,64.72,228.94,54.2,60.67-36.4,55.01-58.25-49.35-42.88-105.98-46.92-188.51-8.99-227.06-15.14S.04,52.58.04,52.58V0Z"/>
    <path class="cls-1" d="m595.31,380.13s-120.47,76.81-235.35,71.88-136.72-12.15-203.87,28.27-42.84,116.41-19.42,130.21c45.3,26.7,134.59,16.2,192.57,43.17,57.14,26.58,223.92,72.52,266.05,67.66v-51.78s-158.74-37.89-227.26-64.72c-61.76-24.19-179.6-14.76-181.21-53.9s96.98-44.8,167.01-43.18,221.17-45.76,241.46-74.7v-52.92Z"/>
    <path class="cls-1" d="m.04,872.89s119.24-4.65,176.85-31.79c56.09-26.43,181.06-51.41,247.8,21.74s-26.66,153.2-94.11,151.49c-63.64-1.62-90.34-49.08-147.78-52.31S.04,1068.26.04,1068.26v-64.18s116.96-91.15,178.99-87.91,108.94,37.48,124.58,43.15,85.21,2.7,90.61-43.69-51.84-63.28-96.54-60.4c-58.79,3.78-212.89,59.87-297.64,67.96v-50.29Z"/>
    <path class="cls-1" d="m595.31,1046.42s-139.08,152.09-301.68,175.55-181.96,76.04-181.23,108.4c.29,12.67,21.86,108.4,205.5,86.56s142.24-55.82,277.41-51.78v-67.96s-127.75,4.85-202.99,38.83-191.73,29.12-186.88-1.62,99.51-56.63,122.97-57.44,202.92-51.78,266.9-152.09v-78.47Z"/>
    <path class="cls-1" d="m.04,1538.68s101.05,56.63,198.94,50.97,165.84-5.66,190.92,29.93-22.65,108.4-114.88,96.27S.04,1741.74.04,1741.74v-55.01s167.39-22.65,229.68-16.99,99.51,3.24,105.98-13.75-35.6-34.79-120.54-27.51S48.64,1614.73.04,1600.17v-61.48Z"/>
    <path class="cls-1" d="m595.28,1847.74s-115.88-10.79-210.27,32.36-71.01,123.04-40.99,144c48.67,33.98,201.03,42.61,251.26,17.8v-61.48s-122.36,49.08-193.01,12.4,88.38-112.72,193.08-96.54l-.07-48.54Z"/>
    <path class="cls-1" d="m0,2084.47s140.69-17.68,181.95,41.32,79.28,160.12,187.69,163.36,160.18,70.38,156.13,107.6-36.4,72.81-156.94,55.82-182.02-96.27-250.79-121.35-118.04,4.04-118.04,4.04v-75.64s83.66-19.56,136.24,9.84,174.88,131.87,240.4,138.34,83.87,5.93,83.6-15.91c-.2-16.2-20.76-45.03-83.33-50.97s-113.26-13.75-153.44-59.87c-38.28-43.93-94.51-175.55-223.48-138.88v-57.71Z"/>
  </g>
</svg>