<?xml version="1.0" encoding="UTF-8"?>
<svg id="github" xmlns="http://www.w3.org/2000/svg" viewBox="0 0 32 32">
  <defs>
    <style>
      .cls-1 {
        fill: #517fb5;
      }

      .cls-1, .cls-2 {
        stroke-width: 0px;
      }

      .cls-2 {
        fill: #efefef;
      }
    </style>
  </defs>
  <circle class="cls-1" cx="16" cy="17.73" r="14"/>
  <path class="cls-2" d="m16,.27C7.33.27.31,7.3.31,15.96c0,7.06,4.66,13.03,11.07,15,.68.01.7-.63.7-.63v-3.01s-.25.08-2.01.13c-1.76.05-3.05-1.23-3.24-2.04-.19-.81-1.26-2.02-1.46-2.11-.2-.09-.9-.5-.88-.84.02-.34.67-.3.67-.3,1.21.02,2.2,1.15,2.61,1.89s1.49,1.45,2.57,1.45,1.79-.44,1.79-.44c0-1.34.96-2.05.96-2.05-4.89-.49-6-3.09-6.14-3.36-.14-.27-.94-1.66-.94-4.34s1.57-4.31,1.57-4.31c-.83-2.32.14-4.2.14-4.2,2.22-.03,4.34,1.7,4.34,1.7,1.17-.42,2.7-.54,4.27-.54s3.58.51,3.58.51c2.78-1.95,4.3-1.66,4.3-1.66,1.08,2.33.11,4.17.11,4.17.41.34,1.21,1.68,1.33,2.08s.68,1.8.12,4.59c-.57,2.79-2.21,3.89-3.71,4.59-1.51.7-3.24.72-3.24.72.92.42,1.07,2.34,1.07,2.34v4.97c0,.36.31.64.68.68,6.43-1.96,11.11-7.94,11.11-15.01C31.69,7.3,24.67.27,16,.27Z"/>
</svg>