<?xml version="1.0" encoding="UTF-8"?>
<svg id="logo_2" data-name="logo 2" xmlns="http://www.w3.org/2000/svg" viewBox="0 0 32 24.82">
  <defs>
    <style>
      .cls-1 {
        fill: #EFEFEF;
        stroke-width: 0px;
      }
    </style>
  </defs>
  <path class="cls-1" d="m7.29,5.2c.36-.55.81-1.1,1.33-1.65.52-.54,1.09-1.03,1.71-1.47.62-.44,1.27-.79,1.95-1.07.68-.28,1.38-.42,2.08-.42,1.26,0,2.29.21,3.09.62s1.43.94,1.9,1.57c.47.63.79,1.31.96,2.03s.26,1.41.26,2.05c0,1.24-.28,2.19-.85,2.85-.57.66-1.27,1.14-2.13,1.44-.85.3-1.78.48-2.77.54s-1.92.13-2.77.19c-.85.06-1.56.18-2.13.35-.57.17-.85.52-.85,1.06,0,.41.21.58.64.51s1-.21,1.71-.45,1.54-.48,2.46-.74c.93-.26,1.88-.38,2.86-.38.66,0,1.25.14,1.78.42.52.28.78.79.78,1.54,0,.51-.08,1.01-.24,1.5-.16.49-.34.98-.54,1.47-.2.49-.38.98-.54,1.47-.16.49-.24,1-.24,1.54,0,.58.13,1.08.4,1.5.27.43.63.8,1.1,1.12.13.06.21.13.26.21.04.07-.02.15-.19.24-.17.06-.43.13-.77.19-.34.06-.69.11-1.06.14-.36.03-.7.06-1.01.08-.31.02-.52.03-.62.03-.49,0-.97-.06-1.44-.18-.47-.12-.88-.3-1.23-.54-.35-.24-.64-.56-.85-.96-.21-.39-.32-.87-.32-1.42,0-.64.19-1.2.56-1.68.37-.48.78-.92,1.22-1.33.44-.4.84-.8,1.22-1.2.37-.39.56-.84.56-1.33,0-.32-.14-.53-.42-.64-.28-.11-.54-.16-.8-.16-.43,0-.83.07-1.22.21-.38.14-.78.29-1.18.45-.41.16-.82.31-1.25.45-.43.14-.89.21-1.38.21-.43,0-.78-.07-1.07-.22-.29-.15-.51-.34-.67-.56s-.27-.48-.34-.77-.1-.56-.1-.82c0-.51.11-.94.34-1.3.22-.35.5-.65.83-.88.33-.23.69-.42,1.07-.56.38-.14.75-.24,1.09-.3.45-.08,1.09-.19,1.94-.32.84-.13,1.67-.29,2.48-.48.81-.19,1.52-.44,2.13-.75s.91-.7.91-1.17c0-.38-.12-.71-.37-.99-.25-.28-.56-.51-.94-.69-.38-.18-.82-.31-1.3-.4-.48-.08-.94-.13-1.39-.13-.38,0-.76.04-1.14.13-.37.09-.74.2-1.1.35-.6.26-1.18.62-1.76,1.09-.58.47-1.09,1.01-1.55,1.62-.46.61-.83,1.25-1.1,1.94-.28.68-.42,1.35-.42,2.02,0,1.73.15,3.53.45,5.39.3,1.87.79,3.6,1.47,5.2.02.04.05.11.08.19.03.09.05.15.05.19,0,.13-.13.2-.38.22-.26.02-.43.03-.51.03-.56,0-1.09-.09-1.62-.27-.52-.18-1.06-.27-1.62-.27s-1.08.09-1.58.27-1.02.27-1.55.27h-.32c-.11,0-.2-.02-.27-.06-.08-.04-.12-.1-.14-.18-.02-.07.01-.2.1-.37.36-.7.66-1.52.9-2.46.23-.94.43-1.9.58-2.88.15-.98.25-1.96.3-2.93.05-.97.08-1.84.08-2.61,0-1.94-.18-3.77-.54-5.47-.36-1.71-.84-3.47-1.44-5.28-.06-.21-.03-.32.1-.32s.3.04.51.13c.21.09.46.18.75.29.29.11.61.2.98.29.36.09.76.13,1.18.13.47,0,.93-.05,1.38-.14.45-.1.87-.2,1.26-.32.39-.12.77-.22,1.12-.32.35-.1.69-.14,1.01-.14.21,0,.37.03.46.08.1.05.07.15-.08.3-.19.17-.36.33-.51.46-.15.14-.3.29-.45.46-.34.36-.61.83-.82,1.39-.2.57-.37,1.08-.5,1.55Z"/>
  <path class="cls-1" d="m15.87,23.35c-.17,0-.35.06-.68-.06-.05-.02-.08.03-.13-.41-.05-.44-.02-.1-.04-.5-.02-.4-.03-.68-.03-.83,0-1.22.37-2.13,1.1-2.75.74-.62,1.68-.93,2.83-.93.79,0,1.5.19,2.13.58.63.38,1.24.81,1.82,1.28.59.47,1.19.9,1.82,1.28.63.38,1.35.58,2.16.58.36,0,.66-.09.9-.27.23-.18.35-.47.35-.88,0-.36-.14-.89-.43-1.57s-.62-1.43-.99-2.24c-.37-.81-.74-1.64-1.09-2.5-.35-.85-.6-1.63-.75-2.34-.26-1.17-.43-2.25-.53-3.23-.1-.98-.26-1.89-.5-2.74-.23-.84-.62-1.63-1.17-2.35-.54-.73-1.39-1.42-2.54-2.08-.17-.11-.3-.19-.38-.24-.09-.05-.13-.18-.13-.37,0-.11.07-.18.21-.21.14-.03.24-.05.3-.05.6,0,1.19.09,1.79.26.6.17,1.19.35,1.78.54.59.19,1.17.37,1.76.54.59.17,1.19.26,1.81.26.38,0,.73-.04,1.02-.13.3-.08.56-.18.8-.29.23-.11.44-.2.61-.29.17-.08.32-.13.45-.13.04,0,.06.02.06.05s.01.07.03.11c0,.04.01.09.03.13,0,1.34-.1,2.68-.3,4-.2,1.32-.3,2.66-.3,4,0,.98.08,1.89.24,2.74.16.84.33,1.66.51,2.46.18.8.35,1.59.51,2.37.16.78.24,1.58.24,2.42,0,1.56-.41,2.74-1.23,3.54s-2,1.2-3.54,1.2c-.58,0-1.14-.05-1.68-.16-.54-.11-1.09-.22-1.63-.34-.54-.12-1.09-.23-1.65-.34-.56-.11-.94-.28-1.69-.24-.65.03-1.18.22-1.68.31s-.76-.12-.98-.14c-.38-.05-.48.01-.75-.02s-.31-.02-.46-.02Z"/>
</svg>